<svg xmlns="http://www.w3.org/2000/svg" viewBox="0 0 1024 1024">
  <defs>
    <linearGradient id="base" x1="160" y1="92" x2="864" y2="932" gradientUnits="userSpaceOnUse">
      <stop offset="0" stop-color="#5E9BFF"/>
      <stop offset="0.55" stop-color="#2F6BFF"/>
      <stop offset="1" stop-color="#1848D8"/>
    </linearGradient>
    <linearGradient id="paper" x1="340" y1="232" x2="720" y2="774" gradientUnits="userSpaceOnUse">
      <stop offset="0" stop-color="#FFFFFF"/>
      <stop offset="1" stop-color="#DCE7FF"/>
    </linearGradient>
    <filter id="shadow" x="-20%" y="-20%" width="140%" height="140%">
      <feDropShadow dx="0" dy="24" stdDeviation="30" flood-color="#0A1D5F" flood-opacity="0.26"/>
    </filter>
  </defs>
  <rect x="96" y="96" width="832" height="832" rx="210" fill="url(#base)"/>
  <path d="M290 308c0-48 39-87 87-87h286c48 0 87 39 87 87v410c0 48-39 87-87 87H377c-48 0-87-39-87-87V308Z" fill="#C9D9FF" opacity="0.34" filter="url(#shadow)"/>
  <path d="M244 250c0-49 40-89 89-89h296c49 0 89 40 89 89v424c0 49-40 89-89 89H333c-49 0-89-40-89-89V250Z" fill="none" stroke="#FFFFFF" stroke-opacity="0.56" stroke-width="44"/>
  <path d="M344 326c0-42 34-76 76-76h280c42 0 76 34 76 76v424c0 42-34 76-76 76H420c-42 0-76-34-76-76V326Z" fill="url(#paper)" filter="url(#shadow)"/>
  <rect x="424" y="396" width="272" height="38" rx="19" fill="#2456E8" opacity="0.34"/>
  <rect x="424" y="492" width="224" height="38" rx="19" fill="#2456E8" opacity="0.26"/>
  <rect x="424" y="588" width="268" height="38" rx="19" fill="#2456E8" opacity="0.20"/>
  <rect x="446" y="202" width="164" height="96" rx="48" fill="#FFFFFF" opacity="0.92"/>
  <rect x="480" y="164" width="96" height="96" rx="48" fill="#EAF1FF"/>
</svg>